<mxfile host="65bd71144e">
    <diagram name="第 1 页" id="ySZDE8blW_etE0rMzz82">
        <mxGraphModel dx="684" dy="601" grid="1" gridSize="10" guides="1" tooltips="1" connect="1" arrows="1" fold="1" page="1" pageScale="1" pageWidth="827" pageHeight="1169" math="0" shadow="0">
            <root>
                <mxCell id="0"/>
                <mxCell id="1" parent="0"/>
                <mxCell id="2" value="" style="rounded=0;whiteSpace=wrap;html=1;" vertex="1" parent="1">
                    <mxGeometry x="110" y="73" width="450" height="490" as="geometry"/>
                </mxCell>
                <mxCell id="MrCttywZgMvGspf8CYV7-1" value="" style="shape=trapezoid;perimeter=trapezoidPerimeter;whiteSpace=wrap;html=1;fixedSize=1;rotation=90;size=60;strokeWidth=4;" parent="1" vertex="1">
                    <mxGeometry x="150" y="280" width="370" height="90" as="geometry"/>
                </mxCell>
                <mxCell id="MrCttywZgMvGspf8CYV7-2" value="" style="group;rotation=-180;" parent="1" vertex="1" connectable="0">
                    <mxGeometry x="170" y="179.9999999999999" width="120" height="20" as="geometry"/>
                </mxCell>
                <mxCell id="MrCttywZgMvGspf8CYV7-3" value="" style="endArrow=none;html=1;rounded=0;strokeWidth=4;" parent="MrCttywZgMvGspf8CYV7-2" edge="1">
                    <mxGeometry width="50" height="50" relative="1" as="geometry">
                        <mxPoint x="120" y="10" as="sourcePoint"/>
                        <mxPoint y="10" as="targetPoint"/>
                    </mxGeometry>
                </mxCell>
                <mxCell id="MrCttywZgMvGspf8CYV7-4" value="" style="endArrow=none;html=1;rounded=0;strokeWidth=4;" parent="MrCttywZgMvGspf8CYV7-2" edge="1">
                    <mxGeometry width="50" height="50" relative="1" as="geometry">
                        <mxPoint as="sourcePoint"/>
                        <mxPoint y="20" as="targetPoint"/>
                    </mxGeometry>
                </mxCell>
                <mxCell id="MrCttywZgMvGspf8CYV7-5" value="" style="group;rotation=-180;" parent="1" vertex="1" connectable="0">
                    <mxGeometry x="170" y="244" width="120" height="20" as="geometry"/>
                </mxCell>
                <mxCell id="MrCttywZgMvGspf8CYV7-6" value="" style="endArrow=none;html=1;rounded=0;strokeWidth=4;" parent="MrCttywZgMvGspf8CYV7-5" edge="1">
                    <mxGeometry width="50" height="50" relative="1" as="geometry">
                        <mxPoint x="120" y="10" as="sourcePoint"/>
                        <mxPoint y="10" as="targetPoint"/>
                    </mxGeometry>
                </mxCell>
                <mxCell id="MrCttywZgMvGspf8CYV7-7" value="" style="endArrow=none;html=1;rounded=0;strokeWidth=4;" parent="MrCttywZgMvGspf8CYV7-5" edge="1">
                    <mxGeometry width="50" height="50" relative="1" as="geometry">
                        <mxPoint as="sourcePoint"/>
                        <mxPoint y="20" as="targetPoint"/>
                    </mxGeometry>
                </mxCell>
                <mxCell id="MrCttywZgMvGspf8CYV7-8" value="" style="group;rotation=-180;" parent="1" vertex="1" connectable="0">
                    <mxGeometry x="170" y="308" width="120" height="20" as="geometry"/>
                </mxCell>
                <mxCell id="MrCttywZgMvGspf8CYV7-9" value="" style="endArrow=none;html=1;rounded=0;strokeWidth=4;" parent="MrCttywZgMvGspf8CYV7-8" edge="1">
                    <mxGeometry width="50" height="50" relative="1" as="geometry">
                        <mxPoint x="120" y="10" as="sourcePoint"/>
                        <mxPoint y="10" as="targetPoint"/>
                    </mxGeometry>
                </mxCell>
                <mxCell id="MrCttywZgMvGspf8CYV7-10" value="" style="endArrow=none;html=1;rounded=0;strokeWidth=4;" parent="MrCttywZgMvGspf8CYV7-8" edge="1">
                    <mxGeometry width="50" height="50" relative="1" as="geometry">
                        <mxPoint as="sourcePoint"/>
                        <mxPoint y="20" as="targetPoint"/>
                    </mxGeometry>
                </mxCell>
                <mxCell id="MrCttywZgMvGspf8CYV7-11" value="" style="group;rotation=-180;" parent="1" vertex="1" connectable="0">
                    <mxGeometry x="170" y="372" width="120" height="20" as="geometry"/>
                </mxCell>
                <mxCell id="MrCttywZgMvGspf8CYV7-12" value="" style="endArrow=none;html=1;rounded=0;strokeWidth=4;" parent="MrCttywZgMvGspf8CYV7-11" edge="1">
                    <mxGeometry width="50" height="50" relative="1" as="geometry">
                        <mxPoint x="120" y="10" as="sourcePoint"/>
                        <mxPoint y="10" as="targetPoint"/>
                    </mxGeometry>
                </mxCell>
                <mxCell id="MrCttywZgMvGspf8CYV7-13" value="" style="endArrow=none;html=1;rounded=0;strokeWidth=4;" parent="MrCttywZgMvGspf8CYV7-11" edge="1">
                    <mxGeometry width="50" height="50" relative="1" as="geometry">
                        <mxPoint as="sourcePoint"/>
                        <mxPoint y="20" as="targetPoint"/>
                    </mxGeometry>
                </mxCell>
                <mxCell id="MrCttywZgMvGspf8CYV7-14" value="" style="group;rotation=-180;" parent="1" vertex="1" connectable="0">
                    <mxGeometry x="170" y="435.9999999999999" width="120" height="20" as="geometry"/>
                </mxCell>
                <mxCell id="MrCttywZgMvGspf8CYV7-15" value="" style="endArrow=none;html=1;rounded=0;strokeWidth=4;" parent="MrCttywZgMvGspf8CYV7-14" edge="1">
                    <mxGeometry width="50" height="50" relative="1" as="geometry">
                        <mxPoint x="120" y="10" as="sourcePoint"/>
                        <mxPoint y="10" as="targetPoint"/>
                    </mxGeometry>
                </mxCell>
                <mxCell id="MrCttywZgMvGspf8CYV7-16" value="" style="endArrow=none;html=1;rounded=0;strokeWidth=4;" parent="MrCttywZgMvGspf8CYV7-14" edge="1">
                    <mxGeometry width="50" height="50" relative="1" as="geometry">
                        <mxPoint as="sourcePoint"/>
                        <mxPoint y="20" as="targetPoint"/>
                    </mxGeometry>
                </mxCell>
                <mxCell id="MrCttywZgMvGspf8CYV7-17" value="" style="group" parent="1" vertex="1" connectable="0">
                    <mxGeometry x="380" y="310" width="130" height="30" as="geometry"/>
                </mxCell>
                <mxCell id="MrCttywZgMvGspf8CYV7-18" value="" style="endArrow=none;html=1;rounded=0;strokeWidth=3;" parent="MrCttywZgMvGspf8CYV7-17" edge="1">
                    <mxGeometry width="50" height="50" relative="1" as="geometry">
                        <mxPoint y="10" as="sourcePoint"/>
                        <mxPoint x="120" y="10" as="targetPoint"/>
                    </mxGeometry>
                </mxCell>
                <mxCell id="MrCttywZgMvGspf8CYV7-19" value="" style="endArrow=none;html=1;rounded=0;strokeWidth=4;" parent="MrCttywZgMvGspf8CYV7-17" edge="1">
                    <mxGeometry width="50" height="50" relative="1" as="geometry">
                        <mxPoint x="121" y="28" as="sourcePoint"/>
                        <mxPoint x="121" y="-2" as="targetPoint"/>
                    </mxGeometry>
                </mxCell>
                <mxCell id="MrCttywZgMvGspf8CYV7-30" value="Data" style="text;html=1;strokeColor=none;fillColor=none;align=center;verticalAlign=middle;whiteSpace=wrap;rounded=0;fontSize=14;" parent="MrCttywZgMvGspf8CYV7-17" vertex="1">
                    <mxGeometry x="-2" y="-19.000000000000114" width="60" height="30" as="geometry"/>
                </mxCell>
                <mxCell id="MrCttywZgMvGspf8CYV7-24" value="" style="endArrow=none;html=1;rounded=0;strokeWidth=3;exitX=1;exitY=0.5;exitDx=0;exitDy=0;" parent="1" source="MrCttywZgMvGspf8CYV7-1" edge="1">
                    <mxGeometry width="50" height="50" relative="1" as="geometry">
                        <mxPoint x="310" y="550" as="sourcePoint"/>
                        <mxPoint x="500" y="325" as="targetPoint"/>
                        <Array as="points">
                            <mxPoint x="335" y="520"/>
                            <mxPoint x="440" y="520"/>
                            <mxPoint x="440" y="325"/>
                        </Array>
                    </mxGeometry>
                </mxCell>
                <mxCell id="MrCttywZgMvGspf8CYV7-28" value="Extender&lt;br style=&quot;font-size: 22px;&quot;&gt;" style="text;html=1;strokeColor=none;fillColor=none;align=center;verticalAlign=middle;whiteSpace=wrap;rounded=0;fontSize=22;rotation=90;" parent="1" vertex="1">
                    <mxGeometry x="252.5" y="303" width="165" height="30" as="geometry"/>
                </mxCell>
                <mxCell id="MrCttywZgMvGspf8CYV7-29" value="Selector" style="text;html=1;strokeColor=none;fillColor=none;align=center;verticalAlign=middle;whiteSpace=wrap;rounded=0;fontSize=14;" parent="1" vertex="1">
                    <mxGeometry x="340" y="489.9999999999999" width="60" height="30" as="geometry"/>
                </mxCell>
                <mxCell id="MrCttywZgMvGspf8CYV7-32" value="Single side" style="text;html=1;strokeColor=none;fillColor=none;align=center;verticalAlign=middle;whiteSpace=wrap;rounded=0;fontSize=16;labelBorderColor=default;" parent="1" vertex="1">
                    <mxGeometry x="360" y="111" width="160" height="30" as="geometry"/>
                </mxCell>
                <mxCell id="MrCttywZgMvGspf8CYV7-33" value="Multiple side" style="text;html=1;strokeColor=none;fillColor=none;align=center;verticalAlign=middle;whiteSpace=wrap;rounded=0;fontSize=16;labelBorderColor=default;" parent="1" vertex="1">
                    <mxGeometry x="137" y="111" width="160" height="30" as="geometry"/>
                </mxCell>
            </root>
        </mxGraphModel>
    </diagram>
</mxfile>